<?xml version="1.0" encoding="UTF-8" standalone="no"?>
<svg
   xmlns:dc="http://purl.org/dc/elements/1.1/"
   xmlns:cc="http://creativecommons.org/ns#"
   xmlns:rdf="http://www.w3.org/1999/02/22-rdf-syntax-ns#"
   xmlns:svg="http://www.w3.org/2000/svg"
   xmlns="http://www.w3.org/2000/svg"
   id="svg105"
   height="28.321001mm"
   width="195.27519mm"
   version="1.0">
  <metadata
     id="metadata109">
    <rdf:RDF>
      <cc:Work
         rdf:about="">
        <dc:format>image/svg+xml</dc:format>
        <dc:type
           rdf:resource="http://purl.org/dc/dcmitype/StillImage" />
      </cc:Work>
    </rdf:RDF>
  </metadata>
  <defs
     id="defs3">
    <pattern
       y="0"
       x="0"
       height="6"
       width="6"
       patternUnits="userSpaceOnUse"
       id="EMFhbasepattern" />
  </defs>
  <path
     id="path5"
     d="  M 371,60.666667   L 371,45.666667   L 400.66667,45.666667   L 400.66667,60.666667   L 371,60.666667  z   "
     style="fill:#1f1a17;fill-rule:nonzero;fill-opacity:1;stroke:none;" />
  <path
     id="path7"
     d="  M 611,93.666667   C 611,82.666667 611,82.666667 611,82.666667   C 611,82.666667 611.33333,82.666667 611.66667,82.666667   C 614,82.666667 616,82 617.66667,80.666667   C 619.33333,79.333333 620.33333,77.333333 621.33333,74.333333   C 636.33333,77 636.33333,77 636.33333,77   C 634.33333,82.333333 631.33333,86.666667 627,89.333333   C 623,92.333333 617.66667,93.666667 611.33333,93.666667   C 611.33333,93.666667 611,93.666667 611,93.666667   z  M 611,68.333333   C 611,59.333333 611,59.333333 611,59.333333   C 622,59.333333 622,59.333333 622,59.333333   C 622,54.666667 620.66667,51.666667 618.66667,49.333333   C 616.66667,47 614,46 611,46   C 611,46 611,46 611,46   C 611,34.333333 611,34.333333 611,34.333333   C 619,34.666667 625.33333,37.333333 630,42.666667   C 635,48.333333 637.33333,56.666667 637,68.333333   C 611,68.333333 611,68.333333 611,68.333333   z  M 654.33333,35.666667   C 668,35.666667 668,35.666667 668,35.666667   C 668,43.333333 668,43.333333 668,43.333333   C 673,37.333333 679,34.333333 686,34.333333   C 689.66667,34.333333 692.66667,35 695.33333,36.666667   C 698,38 700.33333,40.333333 702,43.333333   C 704.33333,40.333333 707,38 710,36.666667   C 713,35 716,34.333333 719.33333,34.333333   C 723.66667,34.333333 727,35.333333 730,37   C 733,38.666667 735,41 736.33333,44.333333   C 737.33333,46.666667 738,50.666667 738,56   C 738,92.333333 738,92.333333 738,92.333333   C 723,92.333333 723,92.333333 723,92.333333   C 723,60 723,60 723,60   C 723,54.333333 722.33333,50.666667 721.33333,49   C 720,47 718,46 715,46   C 712.66667,46 711,46.666667 709,48   C 707,49 705.66667,51 705,53.333333   C 704,55.666667 703.66667,59.666667 703.66667,65   C 703.66667,92.333333 703.66667,92.333333 703.66667,92.333333   C 688.66667,92.333333 688.66667,92.333333 688.66667,92.333333   C 688.66667,61.333333 688.66667,61.333333 688.66667,61.333333   C 688.66667,55.666667 688.33333,52.333333 688,50.666667   C 687.33333,49 686.33333,48 685.33333,47   C 684.33333,46.333333 682.66667,46 680.66667,46   C 678.33333,46 676.33333,46.666667 674.33333,47.666667   C 672.66667,49 671.33333,50.666667 670.66667,53   C 669.66667,55.333333 669.33333,59.333333 669.33333,65   C 669.33333,92.333333 669.33333,92.333333 669.33333,92.333333   C 654.33333,92.333333 654.33333,92.333333 654.33333,92.333333   z  M 497,27.666667   C 486.33333,37.666667 486.33333,37.666667 486.33333,37.666667   C 479.33333,30 471.33333,26.333333 462.33333,26.333333   C 454.66667,26.333333 448.33333,29 443.33333,34   C 438,39.333333 435.66667,45.666667 435.66667,53   C 435.66667,58.333333 436.66667,63 439,67   C 441.33333,71 444.33333,74.333333 448.66667,76.666667   C 452.66667,79 457.66667,80 462.66667,80   C 467,80 471,79.333333 474.66667,77.666667   C 478.33333,76 482,73 486.33333,68.666667   C 496.66667,79.333333 496.66667,79.333333 496.66667,79.333333   C 491,85 485.33333,89 480,91   C 475,93.333333 469,94.333333 462.33333,94.333333   C 450,94.333333 440,90.666667 432.33333,82.666667   C 424.66667,75 420.66667,65 420.66667,53   C 420.66667,45.333333 422.33333,38 426,32   C 429.66667,26 434.66667,21 441.33333,17.333333   C 448,13.666667 455,11.666667 462.66667,11.666667   C 469,11.666667 475.33333,13 481.33333,16   C 487.33333,18.666667 492.66667,22.666667 497,27.666667   z  M 611,34.333333   C 611,46 611,46 611,46   C 607.66667,46 605,47 602.66667,49.333333   C 600.66667,52 599.66667,55 599.66667,59.333333   C 611,59.333333 611,59.333333 611,59.333333   C 611,68.333333 611,68.333333 611,68.333333   C 599.33333,68.333333 599.33333,68.333333 599.33333,68.333333   C 599.33333,72.666667 600.66667,76.333333 603,78.666667   C 605,81 607.66667,82.333333 611,82.666667   C 611,93.666667 611,93.666667 611,93.666667   C 601.33333,93.666667 594,90.333333 589.33333,84   C 585.66667,79 584,72.333333 584,64.333333   C 584,55 586.33333,47.666667 591.33333,42.333333   C 596,37 602.33333,34.333333 610,34.333333   C 610.33333,34.333333 610.66667,34.333333 611,34.333333   z  M 530,14   C 530,43 530,43 530,43   C 535,37.333333 540.66667,34.333333 547.33333,34.333333   C 551,34.333333 554,35 557,36.333333   C 559.66667,37.666667 561.66667,39.333333 563.33333,41.333333   C 564.66667,43.333333 565.66667,45.333333 566,48   C 566.66667,50.333333 567,54 567,59   C 567,92.333333 567,92.333333 567,92.333333   C 551.66667,92.333333 551.66667,92.333333 551.66667,92.333333   C 551.66667,62.333333 551.66667,62.333333 551.66667,62.333333   C 551.66667,56.333333 551.66667,52.666667 551,51   C 550.33333,49.333333 549.33333,48.333333 548,47.333333   C 546.66667,46.333333 544.66667,46 542.33333,46   C 540,46 537.66667,46.666667 535.66667,47.666667   C 534,49 532.33333,50.666667 531.33333,53.333333   C 530.66667,55.666667 530,59.333333 530,64   C 530,92.333333 530,92.333333 530,92.333333   C 515,92.333333 515,92.333333 515,92.333333   C 515,14 515,14 515,14   z "
     style="fill:#1d82d9;fill-rule:nonzero;fill-opacity:1;stroke:none;" />
  <path
     id="path9"
     d="  M 274.66667,33.666667   C 272.33333,30.666667 270,27.666667 267.66667,25   C 261.33333,31 261.33333,31 261.33333,31   C 261.33333,39.666667 261.33333,39.666667 261.33333,39.666667   C 261.66667,40.333333 262,41 262.33333,41.666667   C 274.66667,33.666667 274.66667,33.666667 274.66667,33.666667   z  M 261.33333,24.666667   C 261.33333,18.333333 261.33333,18.333333 261.33333,18.333333   C 262.33333,19.333333 263.66667,20.333333 264.66667,21.666667   z  M 261.33333,31   C 257.66667,34 257.66667,34 257.66667,34   C 259,35.666667 260,37.666667 261.33333,39.666667   C 261.33333,31 261.33333,31 261.33333,31   z  M 261.33333,18.333333   C 261.33333,24.666667 261.33333,24.666667 261.33333,24.666667   C 255.33333,30.333333 255.33333,30.333333 255.33333,30.333333   C 254.33333,29 253.33333,28 252.33333,26.666667   C 252.33333,21.333333 252.33333,21.333333 252.33333,21.333333   C 257.66667,15 257.66667,15 257.66667,15   C 258.66667,16 260,17 261.33333,18.333333   z  M 252.33333,15.333333   C 254.66667,12.666667 254.66667,12.666667 254.66667,12.666667   C 254,12 253.33333,11.333333 252.33333,11   z  M 252.33333,11   C 252.33333,15.333333 252.33333,15.333333 252.33333,15.333333   C 247.66667,21.666667 247.66667,21.666667 247.66667,21.666667   C 246,20 244.33333,18.666667 242.66667,17.333333   C 242.66667,14.666667 242.66667,14.666667 242.66667,14.666667   C 246.66667,7.3333333 246.66667,7.3333333 246.66667,7.3333333   C 248.66667,8.3333333 250.66667,9.6666667 252.33333,11   z  M 252.33333,21.333333   C 250.33333,24.333333 250.33333,24.333333 250.33333,24.333333   C 251,25 251.66667,26 252.33333,26.666667   C 252.33333,21.333333 252.33333,21.333333 252.33333,21.333333   z  M 242.66667,7.3333333   C 243.66667,5.6666667 243.66667,5.6666667 243.66667,5.6666667   C 243.33333,5.3333333 243,5 242.66667,5   z  M 242.66667,5   C 242.66667,7.3333333 242.66667,7.3333333 242.66667,7.3333333   C 238.33333,14.666667 238.33333,14.666667 238.33333,14.666667   C 236.33333,13.333333 234.33333,12.666667 232.33333,11.666667   C 235,2 235,2 235,2   C 237.66667,2.6666667 240,3.6666667 242.66667,5   z  M 242.66667,14.666667   C 242.66667,17.333333 242.66667,17.333333 242.66667,17.333333   C 242.33333,17 241.66667,17 241.33333,16.666667   C 242.66667,14.666667 242.66667,14.666667 242.66667,14.666667   z  M 231.66667,1   C 228.66667,0.33333333 225.66667,0 223,-0.33333333   C 221.33333,9.3333333 221.33333,9.3333333 221.33333,9.3333333   C 224,9.6666667 226.33333,10 229,10.666667   C 231.66667,1 231.66667,1 231.66667,1   z  M 219.33333,-0.33333333   C 216.66667,-0.33333333 214.33333,0 211.66667,0.66666667   C 210.33333,10 210.33333,10 210.33333,10   C 212.66667,9.3333333 215.33333,9.3333333 217.66667,9.3333333   C 219.33333,-0.33333333 219.33333,-0.33333333 219.33333,-0.33333333   z  M 208,1.3333333   C 205.33333,2 202.66667,3.3333333 200,4.6666667   C 200,13 200,13 200,13   C 202.33333,12 204.66667,11.333333 207,10.666667   C 208,1.3333333 208,1.3333333 208,1.3333333   z  M 196.66667,6.3333333   C 194,8 191.66667,10 189,12   C 190.66667,18 190.66667,18 190.66667,18   C 192.66667,16.666667 194.66667,15.666667 196.66667,14.666667   C 196.66667,6.3333333 196.66667,6.3333333 196.66667,6.3333333   z  M 186.33333,14.666667   C 184,17 181.66667,19.666667 180,22.333333   C 181.66667,25.333333 181.66667,25.333333 181.66667,25.333333   C 183.33333,23.333333 185.33333,21.666667 187.66667,20.333333   C 186.33333,14.666667 186.33333,14.666667 186.33333,14.666667   z  M 177.66667,25.666667   C 176,28.333333 174.66667,31.666667 173.33333,34.666667   C 175,32.333333 177,30 179,27.666667   z "
     style="fill:#191b1c;fill-rule:evenodd;fill-opacity:1;stroke:none;" />
  <path
     id="path11"
     d="  M 244.66667,83.666667   C 243,85 241,86.333333 238.66667,87.666667   C 236.33333,83.333333 236.33333,83.333333 236.33333,83.333333   C 244,78.333333 244,78.333333 244,78.333333   z "
     style="fill:#1d82d9;fill-rule:evenodd;fill-opacity:1;stroke:none;" />
  <path
     id="path13"
     d="  M 251.33333,76.333333   C 249.66667,78.666667 247.66667,81 245.66667,82.666667   C 245.33333,77.333333 245.33333,77.333333 245.33333,77.333333   C 251.33333,72.333333 251.33333,72.333333 251.33333,72.333333   z "
     style="fill:#1d82d9;fill-rule:evenodd;fill-opacity:1;stroke:none;" />
  <path
     id="path15"
     d="  M 228.33333,91   C 225,91.333333 222,91.666667 218.33333,91.333333   C 216,89 216,89 216,89   C 224.66667,87.666667 224.66667,87.666667 224.66667,87.666667   C 226,88.666667 227,90 228.33333,91   z "
     style="fill:#1d82d9;fill-rule:evenodd;fill-opacity:1;stroke:none;" />
  <path
     id="path17"
     d="  M 243.66667,77   L 235.33333,82   L 233.33333,78.333333   L 243,72.666667   L 243.66667,77  z   "
     style="fill:#1d82d9;fill-rule:evenodd;fill-opacity:1;stroke:none;" />
  <path
     id="path19"
     d="  M 251.33333,70.333333   L 245.33333,75.666667   L 244.66667,71.333333   L 251,66.333333   L 251.33333,70.333333  z   "
     style="fill:#1d82d9;fill-rule:evenodd;fill-opacity:1;stroke:none;" />
  <path
     id="path21"
     d="  M 234.33333,82.666667   L 224,86.333333   L 222,83.333333   L 232.33333,79.333333   L 234.33333,82.666667  z   "
     style="fill:#1d82d9;fill-rule:evenodd;fill-opacity:1;stroke:none;" />
  <path
     id="path23"
     d="  M 231.66667,78   L 221,82.333333   L 218.33333,79.333333   L 229.66667,74.666667   L 231.66667,78  z   "
     style="fill:#1d82d9;fill-rule:evenodd;fill-opacity:1;stroke:none;" />
  <path
     id="path25"
     d="  M 250.66667,64.666667   L 244,70   L 243,66   L 250.33333,61   L 250.66667,64.666667  z   "
     style="fill:#1d82d9;fill-rule:evenodd;fill-opacity:1;stroke:none;" />
  <path
     id="path27"
     d="  M 249.66667,58.666667   L 242,64   L 238,54.333333   L 246.66667,49   L 249.66667,58.666667  z   "
     style="fill:#1d82d9;fill-rule:evenodd;fill-opacity:1;stroke:none;" />
  <path
     id="path29"
     d="  M 256.66667,52.333333   C 250.66667,57.666667 250.66667,57.666667 250.66667,57.666667   C 247.66667,48.333333 247.66667,48.333333 247.66667,48.333333   C 255.66667,43.333333 255.66667,43.333333 255.66667,43.333333   C 256.66667,46.333333 257,49.666667 256.66667,52.333333   z "
     style="fill:#1d82d9;fill-rule:evenodd;fill-opacity:1;stroke:none;" />
  <path
     id="path31"
     d="  M 240.33333,65   L 230,71   L 224.66667,62   L 236.33333,55.333333   L 240.33333,65  z   "
     style="fill:#1d82d9;fill-rule:evenodd;fill-opacity:1;stroke:none;" />
  <path
     id="path33"
     d="  M 228.33333,72   L 216.66667,77.333333   L 210.66667,68.666667   L 223,62.333333   L 228.33333,72  z   "
     style="fill:#1d82d9;fill-rule:evenodd;fill-opacity:1;stroke:none;" />
  <path
     id="path35"
     d="  M 209.33333,85.666667   C 201,86.333333 201,86.333333 201,86.333333   C 200,85.666667 198.66667,85 198,84   C 206.33333,82.666667 206.33333,82.666667 206.33333,82.666667   z "
     style="fill:#1d82d9;fill-rule:evenodd;fill-opacity:1;stroke:none;" />
  <path
     id="path37"
     d="  M 204.33333,81   C 196,82.333333 196,82.333333 196,82.333333   C 193.66667,80.333333 191.33333,78.333333 189.66667,76   C 198,73.666667 198,73.666667 198,73.666667   z "
     style="fill:#1d82d9;fill-rule:evenodd;fill-opacity:1;stroke:none;" />
  <path
     id="path39"
     d="  M 196.66667,71.666667   L 188.33333,74.333333   L 185.66667,70.666667   L 193.66667,67   L 196.66667,71.666667  z   "
     style="fill:#1d82d9;fill-rule:evenodd;fill-opacity:1;stroke:none;" />
  <path
     id="path41"
     d="  M 207.66667,67   L 198,71   L 195.33333,66.333333   L 204.33333,61.666667   L 207.66667,67  z   "
     style="fill:#1d82d9;fill-rule:evenodd;fill-opacity:1;stroke:none;" />
  <path
     id="path43"
     d="  M 221.66667,60.333333   L 209,66   L 205.66667,60.666667   L 218.66667,54.666667   L 221.66667,60.333333  z   "
     style="fill:#1d82d9;fill-rule:evenodd;fill-opacity:1;stroke:none;" />
  <path
     id="path45"
     d="  M 235.33333,53.333333   L 223.33333,59.333333   L 220.33333,54   L 232.33333,48   L 235.33333,53.333333  z   "
     style="fill:#1d82d9;fill-rule:evenodd;fill-opacity:1;stroke:none;" />
  <path
     id="path47"
     d="  M 231.33333,46   L 219.33333,52.333333   L 216.33333,46.666667   L 228.33333,40.666667   L 231.33333,46  z   "
     style="fill:#1d82d9;fill-rule:evenodd;fill-opacity:1;stroke:none;" />
  <path
     id="path49"
     d="  M 242,40.666667   L 233,45.333333   L 230,40   L 239.66667,36   L 242,40.666667  z   "
     style="fill:#1d82d9;fill-rule:evenodd;fill-opacity:1;stroke:none;" />
  <path
     id="path51"
     d="  M 255.33333,41.333333   C 247,46.666667 247,46.666667 247,46.666667   C 244.33333,42 244.33333,42 244.33333,42   C 253,37.333333 253,37.333333 253,37.333333   C 254,38.666667 254.66667,40 255.33333,41.333333   z "
     style="fill:#1d82d9;fill-rule:evenodd;fill-opacity:1;stroke:none;" />
  <path
     id="path53"
     d="  M 251.66667,35.333333   C 243.33333,39.666667 243.33333,39.666667 243.33333,39.666667   C 241,35.333333 241,35.333333 241,35.333333   C 249,32 249,32 249,32   C 250,33 251,34 251.66667,35.333333   z "
     style="fill:#1d82d9;fill-rule:evenodd;fill-opacity:1;stroke:none;" />
  <path
     id="path55"
     d="  M 238.33333,33.666667   L 228.66667,38   L 222,29   L 232,26.333333   L 238.33333,33.666667  z   "
     style="fill:#1d82d9;fill-rule:evenodd;fill-opacity:1;stroke:none;" />
  <path
     id="path57"
     d="  M 239.66667,22.666667   C 231.33333,23.666667 231.33333,23.666667 231.33333,23.666667   C 228.33333,21.333333 228.33333,21.333333 228.33333,21.333333   C 236.33333,20.333333 236.33333,20.333333 236.33333,20.333333   C 237.66667,21 238.66667,22 239.66667,22.666667   z "
     style="fill:#1d82d9;fill-rule:evenodd;fill-opacity:1;stroke:none;" />
  <path
     id="path59"
     d="  M 230,24   L 220.33333,27   L 217.66667,24   L 226.66667,21.666667   L 230,24  z   "
     style="fill:#1d82d9;fill-rule:evenodd;fill-opacity:1;stroke:none;" />
  <path
     id="path61"
     d="  M 219.33333,27.333333   L 208,32   L 206,28.666667   L 216.33333,24.333333   L 219.33333,27.333333  z   "
     style="fill:#1d82d9;fill-rule:evenodd;fill-opacity:1;stroke:none;" />
  <path
     id="path63"
     d="  M 225.33333,20.666667   L 216.33333,23   L 213.66667,20   L 222.33333,18.333333   L 225.33333,20.666667  z   "
     style="fill:#1d82d9;fill-rule:evenodd;fill-opacity:1;stroke:none;" />
  <path
     id="path65"
     d="  M 220.66667,17   C 212.33333,19 212.33333,19 212.33333,19   C 209,15.666667 209,15.666667 209,15.666667   C 211.66667,15 214.66667,14.666667 218,15   z "
     style="fill:#1d82d9;fill-rule:evenodd;fill-opacity:1;stroke:none;" />
  <path
     id="path67"
     d="  M 211.33333,19   C 202.66667,22.666667 202.66667,22.666667 202.66667,22.666667   C 200.66667,19 200.66667,19 200.66667,19   C 202.66667,17.666667 205.33333,16.666667 208,15.666667   z "
     style="fill:#1d82d9;fill-rule:evenodd;fill-opacity:1;stroke:none;" />
  <path
     id="path69"
     d="  M 214,44.666667   L 200.66667,51.666667   L 197,41.666667   L 208.66667,35   L 214,44.666667  z   "
     style="fill:#1d82d9;fill-rule:evenodd;fill-opacity:1;stroke:none;" />
  <path
     id="path71"
     d="  M 207.33333,32.666667   L 196,39.333333   L 194.66667,35.333333   L 205,29.333333   L 207.33333,32.666667  z   "
     style="fill:#1d82d9;fill-rule:evenodd;fill-opacity:1;stroke:none;" />
  <path
     id="path73"
     d="  M 204.33333,28   L 194.33333,34   L 193.33333,30.333333   L 202.33333,24.666667   L 204.33333,28  z   "
     style="fill:#1d82d9;fill-rule:evenodd;fill-opacity:1;stroke:none;" />
  <path
     id="path75"
     d="  M 195,40   L 187.33333,45.666667   L 186.66667,42.333333   L 193.66667,36   L 195,40  z   "
     style="fill:#1d82d9;fill-rule:evenodd;fill-opacity:1;stroke:none;" />
  <path
     id="path77"
     d="  M 193.33333,34.666667   L 186.33333,40.333333   L 186,37.333333   L 192.66667,31   L 193.33333,34.666667  z   "
     style="fill:#1d82d9;fill-rule:evenodd;fill-opacity:1;stroke:none;" />
  <path
     id="path79"
     d="  M 192,29.666667   C 186,35.666667 186,35.666667 186,35.666667   C 185.66667,31.333333 185.66667,31.333333 185.66667,31.333333   C 187.33333,29.333333 189.33333,27.333333 191.33333,25.333333   z "
     style="fill:#1d82d9;fill-rule:evenodd;fill-opacity:1;stroke:none;" />
  <path
     id="path81"
     d="  M 185.33333,41.666667   L 181,46.333333   L 181.33333,42.666667   L 185,38.333333   L 185.33333,41.666667  z   "
     style="fill:#1d82d9;fill-rule:evenodd;fill-opacity:1;stroke:none;" />
  <path
     id="path83"
     d="  M 185,36   C 181.66667,40 181.66667,40 181.66667,40   C 182.33333,38 182.33333,38 182.33333,38   C 183,36.333333 184,34.666667 185,32.666667   z "
     style="fill:#1d82d9;fill-rule:evenodd;fill-opacity:1;stroke:none;" />
  <path
     id="path85"
     d="  M 203.33333,59.666667   L 194,64.666667   L 191.66667,60   L 200.66667,54.333333   L 203.33333,59.666667  z   "
     style="fill:#1d82d9;fill-rule:evenodd;fill-opacity:1;stroke:none;" />
  <path
     id="path87"
     d="  M 192.66667,65.333333   L 185,69.333333   L 183,65   L 190.33333,60.666667   L 192.66667,65.333333  z   "
     style="fill:#1d82d9;fill-rule:evenodd;fill-opacity:1;stroke:none;" />
  <path
     id="path89"
     d="  M 199.66667,52   L 190.66667,57.666667   L 187.66667,48   L 195.66667,42.333333   L 199.66667,52  z   "
     style="fill:#1d82d9;fill-rule:evenodd;fill-opacity:1;stroke:none;" />
  <path
     id="path91"
     d="  M 189.33333,58.333333   C 182.33333,63.333333 182.33333,63.333333 182.33333,63.333333   C 181.33333,60.333333 180.66667,57.666667 180.33333,54.666667   C 186.33333,49.333333 186.33333,49.333333 186.33333,49.333333   z "
     style="fill:#1d82d9;fill-rule:evenodd;fill-opacity:1;stroke:none;" />
  <path
     id="path93"
     d="  M 252,65.666667   L 256.33333,61.333333   L 256.33333,64.666667   L 252.33333,69.333333   L 252,65.666667  z   "
     style="fill:#1d82d9;fill-rule:evenodd;fill-opacity:1;stroke:none;" />
  <path
     id="path95"
     d="  M 252.33333,71.666667   L 256,67.333333   L 255.33333,70.333333   L 252.33333,74.666667   L 252.33333,71.666667  z   "
     style="fill:#1d82d9;fill-rule:evenodd;fill-opacity:1;stroke:none;" />
  <path
     id="path97"
     d="  M 194.66667,101.66667   C 194.66667,99 194.66667,99 194.66667,99   C 199,91.666667 199,91.666667 199,91.666667   C 201,93 203,94 205,94.666667   C 202.33333,104.33333 202.33333,104.33333 202.33333,104.33333   C 199.66667,103.66667 197.33333,102.66667 194.66667,101.66667   z  M 194.66667,91.666667   C 194.66667,89 194.66667,89 194.66667,89   C 195,89.333333 195.33333,89.666667 196,90   C 194.66667,91.666667 194.66667,91.666667 194.66667,91.666667   z  M 205.66667,105.33333   C 208.66667,106.33333 211.33333,106.66667 214.33333,106.66667   C 216,97.333333 216,97.333333 216,97.333333   C 213.33333,97 210.66667,96.666667 208.33333,95.666667   C 205.66667,105.33333 205.66667,105.33333 205.66667,105.33333   z  M 218,106.66667   C 220.66667,106.66667 223,106.66667 225.66667,106   C 227,96.666667 227,96.666667 227,96.666667   C 224.33333,97 222,97.333333 219.33333,97.333333   C 218,106.66667 218,106.66667 218,106.66667   z  M 229,105   C 232,104.33333 234.66667,103.33333 237.33333,102   C 237,93.666667 237,93.666667 237,93.666667   C 235,94.333333 232.66667,95.333333 230.33333,96   C 229,105 229,105 229,105   z  M 240.66667,100   C 243.33333,98.333333 245.66667,96.666667 248,94.666667   C 246.66667,88.333333 246.66667,88.333333 246.66667,88.333333   C 244.66667,89.666667 242.66667,91 240.66667,92   C 240.66667,100 240.66667,100 240.66667,100   z  M 251,91.666667   C 253.33333,89.666667 255.33333,87 257.33333,84   C 255.66667,81.333333 255.66667,81.333333 255.66667,81.333333   C 253.66667,83 251.66667,84.666667 249.66667,86.333333   C 251,91.666667 251,91.666667 251,91.666667   z  M 259.33333,81   C 261.33333,78 262.66667,75 264,71.666667   C 262.33333,74 260.33333,76.333333 258.33333,78.666667   z  M 194.66667,89   C 194.66667,91.666667 194.66667,91.666667 194.66667,91.666667   C 190.33333,99.333333 190.33333,99.333333 190.33333,99.333333   C 188.66667,98 186.66667,97 184.66667,95.666667   C 184.66667,91 184.66667,91 184.66667,91   C 189.66667,84.666667 189.66667,84.666667 189.66667,84.666667   C 191.33333,86.333333 193,87.666667 194.66667,89   z  M 194.66667,99   C 193.66667,101 193.66667,101 193.66667,101   C 194,101 194.33333,101.33333 194.66667,101.66667   C 194.66667,99 194.66667,99 194.66667,99   z  M 184.66667,85   C 187,82 187,82 187,82   C 186.33333,81.333333 185.33333,80.333333 184.66667,79.666667   z  M 176,75.666667   C 179.66667,72.666667 179.66667,72.666667 179.66667,72.666667   C 178.33333,70.666667 177,68.666667 176,66.666667   C 176,75.666667 176,75.666667 176,75.666667   z  M 184.66667,79.666667   C 184.66667,85 184.66667,85 184.66667,85   C 179.66667,91.666667 179.66667,91.666667 179.66667,91.666667   C 178.33333,90.333333 177.33333,89.333333 176,88.333333   C 176,81.666667 176,81.666667 176,81.666667   C 182,76.333333 182,76.333333 182,76.333333   C 183,77.333333 184,78.666667 184.66667,79.666667   z  M 184.66667,91   C 182.66667,94 182.66667,94 182.66667,94   C 183.33333,94.333333 184,95 184.66667,95.666667   z  M 162.33333,72.666667   C 164.66667,76 167,78.666667 169.66667,81.333333   C 176,75.666667 176,75.666667 176,75.666667   C 176,66.666667 176,66.666667 176,66.666667   C 175.66667,66 175.33333,65.333333 175,65   C 162.33333,72.666667 162.33333,72.666667 162.33333,72.666667   z  M 176,81.666667   C 176,88.333333 176,88.333333 176,88.333333   C 175,87 173.66667,86 172.66667,84.666667   z "
     style="fill:#191b1c;fill-rule:evenodd;fill-opacity:1;stroke:none;" />
  <path
     id="path99"
     d="  M 284,67   C 299.66667,65.333333 299.66667,65.333333 299.66667,65.333333   C 300.33333,70.666667 302.33333,74.333333 305.33333,77   C 308,79.333333 312,80.333333 316.66667,80.333333   C 322,80.333333 325.66667,79.333333 328.33333,77.333333   C 331,75 332,72.666667 332,69.666667   C 332,67.666667 331.66667,66.333333 330.66667,65   C 329.33333,63.666667 327.66667,62.333333 325,61.333333   C 323,60.666667 318.66667,59.666667 312,58   C 303.66667,56 297.66667,53.333333 294.33333,50.333333   C 289.33333,46 287,40.666667 287,34.666667   C 287,30.666667 288,26.666667 290.33333,23.333333   C 292.66667,19.666667 296,17.333333 300.33333,15.333333   C 304.66667,13.666667 309.66667,12.666667 315.66667,12.666667   C 325.66667,12.666667 333,14.666667 338,19   C 343,23.333333 345.66667,29.333333 345.66667,36.333333   C 330,37.333333 330,37.333333 330,37.333333   C 329.33333,33 328,30.333333 325.66667,28.333333   C 323.33333,26.666667 320,25.666667 315.66667,25.666667   C 311,25.666667 307.33333,26.666667 304.66667,28.666667   C 303,29.666667 302.33333,31.333333 302.33333,33.333333   C 302.33333,35.333333 303,37 304.66667,38.333333   C 306.66667,40 311.33333,41.666667 319,43.666667   C 327,45.333333 332.66667,47.333333 336.33333,49.333333   C 340,51 342.66667,53.666667 345,57   C 347,60.333333 348,64.666667 348,69.666667   C 348,74 347,78.333333 344.33333,82.333333   C 341.66667,86 338.33333,89 333.66667,91   C 329,93 323.33333,94 316.66667,94   C 306.66667,94 299,91.666667 293.66667,87   C 288.33333,82.333333 285.33333,75.666667 284,67   z "
     style="fill:#1f1a17;fill-rule:nonzero;fill-opacity:1;stroke:none;" />
  <path
     id="path101"
     d="  M 93.666667,92.333333   L 93.666667,14   L 152,14   L 152,27.333333   L 109.66667,27.333333   L 109.66667,44.666667   L 149,44.666667   L 149,58   L 109.66667,58   L 109.66667,79.333333   L 153.66667,79.333333   L 153.66667,92.333333   L 93.666667,92.333333  z   "
     style="fill:#1f1a17;fill-rule:nonzero;fill-opacity:1;stroke:none;" />
  <path
     id="path103"
     d="  M 75.333333,27.333333   C 65,37.333333 65,37.333333 65,37.333333   C 58.333333,30.666667 50.666667,27 42,27   C 34.333333,27 28,29.666667 23,34.666667   C 17.666667,39.666667 15.333333,46 15.333333,53   C 15.333333,60.333333 18,66.666667 23.333333,72   C 28.666667,77 35,79.666667 43,79.666667   C 48,79.666667 52.333333,78.666667 55.666667,76.666667   C 59.333333,74.333333 62,71 64.333333,66.333333   C 42,66.333333 42,66.333333 42,66.333333   C 42,52.666667 42,52.666667 42,52.666667   C 80.666667,52.666667 80.666667,52.666667 80.666667,52.666667   C 80.666667,56 80.666667,56 80.666667,56   C 80.666667,62.666667 79,69 75.666667,75   C 72,81.333333 67.666667,86 62,89   C 56.333333,92.333333 49.666667,94 42.333333,94   C 34.333333,94 27.333333,92 20.666667,88.666667   C 14.666667,85 9.6666667,80 6,73.666667   C 2.3333333,67.333333 0.33333333,60.333333 0.33333333,53   C 0.33333333,42.666667 4,33.666667 10.666667,26   C 18.666667,17 29,12.666667 42,12.666667   C 48.666667,12.666667 55,14 60.666667,16.333333   C 65.666667,18.333333 70.666667,22 75.333333,27.333333   z "
     style="fill:#1f1a17;fill-rule:nonzero;fill-opacity:1;stroke:none;" />
</svg>
